<svg width="960" height="533" xmlns="http://www.w3.org/2000/svg"><path d="M384 528 " style="stroke:pink"/><path d="M385 526 " style="stroke:pink"/><path d="M412 471 411 472 411 473 409 475 409 476 408 477 408 478 406 480 406 481 405 482 405 483 404 484 404 485 402 487 402 488 401 489 401 490 400 491 400 493 399 494 399 495 398 496 398 497 397 498 397 499 396 500 396 501 395 502 395 503 394 504 394 505 393 506 393 507 392 508 392 509 391 510 391 512 390 513 390 514 389 515 389 517 388 518 388 519 387 520 387 522 386 523 386 524 386 523 387 522 387 521 389 519 389 518 390 517 390 516 391 515 391 514 392 513 392 512 393 511 393 510 395 508 395 507 398 504 398 503 400 501 400 500 403 497 403 496 405 494 405 493 408 490 408 489 411 486 411 483 412 482 412 478 413 477 413 471 " style="stroke:pink"/><path d="M432 423 432 425 431 426 431 428 430 429 430 431 429 432 429 433 428 434 428 436 427 437 427 439 426 440 426 442 425 443 425 445 424 446 424 447 423 448 423 450 422 451 422 453 421 454 421 455 420 456 421 457 419 459 419 460 418 461 419 462 418 463 418 464 419 465 419 469 420 470 420 471 421 472 422 471 422 470 426 466 426 465 430 461 430 460 434 456 434 455 438 451 438 450 442 446 442 445 445 442 445 440 443 438 443 437 442 436 442 435 441 435 440 436 440 437 439 438 439 439 437 441 436 440 436 438 435 439 435 440 431 444 431 445 427 449 426 448 426 447 428 445 428 444 431 441 431 440 434 437 434 436 438 432 438 431 441 428 441 427 439 425 438 425 437 424 434 424 433 423 " style="stroke:pink"/><path d="M420 456 421 455 422 456 421 457 " style="stroke:pink"/><path d="M421 454 422 453 423 454 423 455 422 456 421 455 " style="stroke:pink"/><path d="M422 453 423 452 424 453 423 454 " style="stroke:pink"/><path d="M426 448 427 449 427 450 424 453 423 452 423 451 " style="stroke:pink"/><path d="M509 348 508 349 508 350 502 356 502 357 500 359 500 360 499 361 499 362 497 364 497 365 494 368 493 367 490 370 490 371 485 376 485 377 479 383 479 384 474 389 474 390 470 394 470 395 466 399 466 400 463 403 463 404 460 407 460 408 456 412 456 413 454 415 456 415 457 416 461 416 462 417 465 417 466 418 468 418 469 419 470 419 471 418 471 417 474 414 474 413 477 410 477 409 479 407 479 406 481 404 481 403 483 401 483 400 485 398 485 397 487 395 487 394 489 392 489 391 490 390 490 389 491 388 491 387 492 386 492 385 493 384 493 383 494 382 494 380 495 379 495 378 496 377 496 376 497 375 497 373 498 372 498 371 499 370 499 368 500 367 500 366 501 365 501 364 502 363 502 362 503 361 503 359 504 358 504 357 505 356 505 355 506 354 506 353 507 352 507 351 508 350 508 349 " style="stroke:pink"/><path d="M493 367 494 368 494 369 492 371 491 370 491 369 " style="stroke:pink"/><path d="M0 0 0 532 325 532 325 531 328 528 328 527 330 525 330 524 332 522 332 521 334 519 334 518 336 516 336 515 337 514 337 513 338 512 338 511 339 510 339 509 340 508 340 507 341 506 341 505 342 504 342 502 343 501 343 500 344 499 344 498 345 497 345 495 346 494 346 493 347 492 347 491 348 490 348 489 349 488 349 486 350 485 350 484 351 483 351 481 352 480 352 479 353 478 353 477 354 476 354 475 355 474 355 473 356 472 356 471 358 469 358 468 359 467 359 466 360 465 360 464 362 462 362 461 365 458 365 456 364 455 364 453 363 452 363 450 362 449 362 447 361 446 361 445 360 444 360 442 359 441 359 439 358 438 358 436 359 435 359 434 361 432 361 431 366 426 366 425 376 415 377 415 389 403 390 403 396 397 405 397 406 398 416 398 417 399 418 399 419 398 421 398 417 398 416 397 409 397 408 396 401 396 400 395 393 395 392 394 385 394 384 393 385 392 394 392 395 393 403 393 404 394 411 394 412 395 420 395 421 396 425 396 432 389 433 390 433 391 424 400 424 401 423 402 423 403 421 405 421 406 415 412 414 412 421 412 422 413 426 413 427 414 430 414 431 415 433 415 434 416 436 416 437 417 438 417 440 419 441 419 445 423 445 422 448 419 448 418 452 414 451 415 450 415 449 416 448 415 448 414 449 413 449 411 450 410 450 409 451 408 451 406 452 405 452 404 453 403 453 401 454 400 454 397 454 398 453 399 453 400 452 401 452 402 451 403 451 404 450 405 450 406 449 407 449 408 448 409 448 410 447 411 446 410 446 409 446 410 445 411 445 412 444 413 443 412 443 409 444 408 444 407 445 406 445 405 446 404 446 403 447 402 447 401 448 400 448 399 449 398 449 397 454 392 452 394 451 394 450 393 449 393 448 392 447 392 446 391 446 390 445 390 443 388 441 388 440 389 440 390 438 392 438 393 436 395 436 396 434 398 434 399 432 401 432 402 431 403 431 404 430 405 429 404 428 404 427 403 428 402 428 401 431 398 431 397 434 394 434 393 436 391 436 390 439 387 439 386 442 383 442 382 445 379 445 378 448 375 448 374 451 371 451 370 452 369 452 368 453 367 453 366 454 365 452 367 452 368 450 370 449 369 448 369 443 374 443 375 436 382 436 383 425 394 424 393 424 392 428 388 428 387 431 384 431 383 433 381 433 380 434 379 434 377 435 376 435 374 434 373 434 371 433 370 433 369 431 367 430 367 429 366 428 366 426 364 425 364 424 363 423 363 422 362 420 362 419 361 418 361 417 360 415 360 414 359 412 359 411 358 409 358 408 357 403 357 402 358 400 358 398 360 397 360 396 361 395 361 393 363 392 363 390 365 389 365 386 368 385 368 382 371 381 371 379 373 378 373 376 375 375 375 373 377 372 377 371 378 370 378 369 379 368 379 367 380 366 380 365 381 364 381 363 380 365 378 366 378 367 377 368 377 370 375 371 375 373 373 374 373 376 371 377 371 380 368 381 368 383 366 384 366 387 363 388 363 390 361 390 360 391 359 392 359 397 354 398 354 414 338 415 338 417 336 418 336 419 335 420 335 419 334 417 336 416 336 414 338 413 338 411 340 410 340 406 344 405 344 400 349 400 350 398 352 397 352 386 363 385 363 382 366 381 366 378 369 377 369 374 372 373 372 371 374 370 374 369 375 368 375 366 377 365 377 364 378 363 378 362 379 361 379 360 380 359 380 358 381 357 381 356 382 355 382 354 383 353 383 352 384 351 384 350 385 348 385 347 386 346 386 345 387 344 387 343 388 342 388 341 389 339 389 338 390 337 390 336 391 335 391 334 392 324 392 323 391 324 390 326 390 327 389 329 389 330 388 333 388 334 387 336 387 337 386 339 386 340 385 342 385 343 384 345 384 346 383 347 383 348 382 350 382 351 381 352 381 353 380 355 380 356 379 357 379 358 378 359 378 360 377 361 377 363 375 364 375 365 374 366 374 368 372 369 372 370 371 371 371 373 369 374 369 376 367 377 367 380 364 381 364 395 350 395 349 410 334 411 334 413 332 414 332 415 331 416 331 417 330 420 330 422 332 422 333 423 334 423 335 425 337 425 338 427 340 428 340 429 341 440 341 441 340 444 340 445 339 447 339 448 338 449 338 450 337 452 337 453 336 454 336 455 335 456 335 457 334 458 334 460 332 461 332 463 330 464 330 468 326 468 325 473 320 473 319 478 314 478 313 480 311 482 313 483 313 500 330 499 331 498 331 496 329 501 334 501 335 499 337 498 337 497 338 496 338 495 339 494 339 493 340 491 340 490 341 489 341 488 342 486 342 485 343 484 343 483 344 481 344 480 345 479 345 478 346 476 346 475 347 474 347 473 348 471 348 470 349 469 349 468 350 470 352 470 353 471 354 471 355 476 360 477 360 479 362 480 362 486 368 486 369 487 368 486 368 485 367 485 366 481 362 480 362 472 354 472 353 473 352 474 353 475 353 476 354 478 352 481 352 482 353 483 353 486 356 487 356 488 357 491 354 492 354 495 351 494 352 493 352 492 351 494 349 495 349 498 346 499 346 498 346 497 347 496 347 495 348 494 348 493 347 492 348 490 348 489 349 488 349 487 350 483 350 482 351 480 351 479 352 477 352 476 353 475 352 474 352 473 351 473 350 474 349 476 349 477 348 478 348 479 347 481 347 482 346 484 346 485 345 487 345 488 344 489 344 490 343 492 343 493 342 495 342 496 341 498 341 499 340 500 340 501 339 503 339 504 338 506 338 507 337 508 337 509 336 510 336 511 335 510 334 509 334 508 335 507 334 507 333 504 330 504 329 500 325 500 324 496 320 496 319 495 318 495 316 496 315 496 314 498 312 500 312 501 311 502 311 503 310 505 310 506 309 508 309 509 310 508 311 507 311 506 312 505 312 502 315 502 319 505 322 510 322 511 321 512 321 513 322 513 323 515 323 516 322 518 322 519 321 520 321 521 320 523 320 524 319 525 319 526 320 524 322 523 322 520 325 519 325 518 326 519 325 520 325 522 323 523 323 524 322 525 322 526 323 518 331 518 332 519 332 520 333 523 330 524 330 533 321 534 321 539 316 540 316 542 314 543 314 545 312 546 312 548 310 549 310 550 309 551 309 552 308 553 308 554 307 555 307 556 306 557 306 558 305 560 305 561 304 562 304 563 303 565 303 566 302 569 302 570 301 573 301 574 300 577 300 576 299 576 298 577 297 576 296 577 295 586 295 587 296 585 298 584 297 583 297 582 298 581 298 579 300 580 299 582 299 583 298 584 299 599 299 600 300 604 300 605 301 608 301 609 302 610 301 610 300 608 298 607 298 600 291 602 289 603 289 604 290 604 292 605 293 606 293 607 294 608 294 609 295 610 295 612 297 613 297 614 298 614 304 615 305 616 305 617 306 618 306 619 307 620 307 622 309 623 309 624 310 625 310 627 312 628 312 630 314 631 314 636 319 638 319 639 320 643 320 644 321 646 321 647 322 648 322 651 325 651 326 652 327 652 331 653 332 653 333 654 333 655 334 657 334 658 335 660 335 661 336 662 336 663 337 665 337 666 338 667 338 669 340 670 340 676 346 676 347 677 348 677 349 678 350 678 351 679 352 679 353 680 354 680 356 681 357 681 358 682 359 682 360 683 361 683 362 684 363 684 365 685 366 685 367 686 368 686 370 687 371 687 373 688 374 688 375 689 376 689 378 690 379 690 382 691 383 691 386 692 387 692 391 693 392 693 405 694 406 694 429 695 430 695 454 698 454 699 455 700 455 704 459 704 460 705 461 705 464 706 465 706 469 707 470 707 477 708 478 708 485 709 486 709 491 710 492 710 498 711 499 711 504 712 505 712 510 713 511 713 516 714 517 714 522 715 523 715 528 716 529 716 532 959 532 959 0 " style="stroke:pink"/><path d="M436 415 437 414 438 414 439 415 442 415 443 416 443 417 444 418 443 419 442 419 441 418 440 418 439 417 438 417 " style="stroke:pink"/><path d="M444 414 445 413 446 414 445 415 " style="stroke:pink"/><path d="M434 414 435 413 436 413 437 414 436 415 435 415 " style="stroke:pink"/><path d="M442 413 443 412 444 413 444 414 443 415 442 414 " style="stroke:pink"/><path d="M432 413 433 412 434 412 435 413 434 414 433 414 " style="stroke:pink"/><path d="M445 411 446 410 447 411 447 412 446 413 445 412 " style="stroke:pink"/><path d="M424 410 425 409 429 409 431 411 432 411 433 412 432 413 428 413 426 411 425 411 " style="stroke:pink"/><path d="M421 406 422 405 423 406 422 407 " style="stroke:pink"/><path d="M425 405 426 404 427 405 426 406 " style="stroke:pink"/><path d="M422 405 423 404 424 405 423 406 " style="stroke:pink"/><path d="M426 404 427 403 428 404 427 405 " style="stroke:pink"/><path d="M423 404 424 403 425 404 424 405 " style="stroke:pink"/><path d="M424 402 425 401 426 402 426 403 425 404 424 403 " style="stroke:pink"/><path d="M427 398 428 399 428 400 426 402 425 401 425 400 " style="stroke:pink"/><path d="M427 398 428 397 429 398 428 399 " style="stroke:pink"/><path d="M428 397 429 396 430 397 429 398 " style="stroke:pink"/><path d="M429 395 430 394 431 395 430 396 " style="stroke:pink"/><path d="M375 392 376 391 382 391 383 392 382 393 376 393 " style="stroke:pink"/><path d="M367 391 368 390 370 390 371 391 370 392 368 392 " style="stroke:pink"/><path d="M432 389 433 388 434 389 433 390 " style="stroke:pink"/><path d="M433 388 434 387 435 388 434 389 " style="stroke:pink"/><path d="M352 385 353 384 354 384 355 385 354 386 353 386 " style="stroke:pink"/><path d="M437 383 438 384 438 385 435 388 434 387 434 386 " style="stroke:pink"/><path d="M354 384 355 383 357 383 358 384 357 385 355 385 " style="stroke:pink"/><path d="M437 383 438 382 439 383 438 384 " style="stroke:pink"/><path d="M357 383 358 382 359 382 360 383 359 384 358 384 " style="stroke:pink"/><path d="M438 382 439 381 440 382 439 383 " style="stroke:pink"/><path d="M359 382 360 381 361 381 362 382 361 383 360 383 " style="stroke:pink"/><path d="M361 381 362 380 363 380 364 381 363 382 362 382 " style="stroke:pink"/><path d="M443 376 444 377 444 378 440 382 439 381 439 380 " style="stroke:pink"/><path d="M443 376 444 375 445 376 444 377 " style="stroke:pink"/><path d="M444 375 445 374 446 375 445 376 " style="stroke:pink"/><path d="M447 371 448 372 448 373 446 375 445 374 445 373 " style="stroke:pink"/><path d="M447 371 448 370 449 371 448 372 " style="stroke:pink"/><path d="M448 370 449 369 450 370 449 371 " style="stroke:pink"/><path d="M489 353 490 352 491 352 492 353 491 354 490 354 " style="stroke:pink"/><path d="M491 352 492 351 493 352 492 353 " style="stroke:pink"/><path d="M471 352 472 351 473 352 472 353 " style="stroke:pink"/><path d="M492 348 493 347 494 348 493 349 " style="stroke:pink"/><path d="M354 343 355 342 356 343 357 343 358 344 359 344 361 346 362 346 367 351 366 352 363 352 362 351 361 351 360 350 359 350 356 347 356 346 354 344 " style="stroke:pink"/><path d="M502 334 503 333 504 334 503 335 " style="stroke:pink"/><path d="M501 333 502 332 503 333 502 334 " style="stroke:pink"/><path d="M500 332 501 331 502 332 501 333 " style="stroke:pink"/><path d="M499 331 500 330 501 331 500 332 " style="stroke:pink"/><path d="M525 322 526 321 527 322 526 323 " style="stroke:pink"/><path d="M525 319 526 318 527 319 526 320 " style="stroke:pink"/><path d="M531 317 532 316 533 317 532 318 " style="stroke:pink"/><path d="M493 316 494 315 495 316 494 317 " style="stroke:pink"/><path d="M534 314 535 314 536 315 534 317 533 317 532 316 " style="stroke:pink"/><path d="M492 315 493 314 494 315 493 316 " style="stroke:pink"/><path d="M535 314 536 313 537 314 536 315 " style="stroke:pink"/><path d="M491 314 492 313 493 314 492 315 " style="stroke:pink"/><path d="M490 313 491 312 492 313 491 314 " style="stroke:pink"/><path d="M538 311 539 311 540 312 538 314 537 314 536 313 " style="stroke:pink"/><path d="M508 309 509 308 511 308 512 309 511 310 509 310 " style="stroke:pink"/><path d="M512 308 513 307 514 308 513 309 " style="stroke:pink"/><path d="M583 298 584 297 585 298 584 299 " style="stroke:pink"/><path d="M587 295 588 294 589 294 590 295 589 296 588 296 " style="stroke:pink"/><path d="M596 292 597 292 603 298 604 298 605 299 604 300 602 300 601 299 600 299 599 298 597 298 596 297 595 297 594 296 594 294 " style="stroke:pink"/><path d="M592 293 593 292 594 293 594 294 593 295 592 294 " style="stroke:pink"/><path d="M426 293 427 292 429 292 430 293 429 294 427 294 " style="stroke:pink"/><path d="M593 292 594 291 595 292 594 293 " style="stroke:pink"/><path d="M430 292 431 291 433 291 434 292 433 293 431 293 " style="stroke:pink"/><path d="M433 291 434 290 436 290 437 291 436 292 434 292 " style="stroke:pink"/><path d="M575 290 576 289 590 289 592 291 589 294 578 294 577 295 574 295 573 296 571 296 570 297 569 297 568 298 567 298 566 299 565 299 564 300 563 300 562 301 561 301 560 302 559 302 558 303 557 303 556 304 555 304 554 305 553 305 552 306 551 306 550 307 549 307 548 308 547 308 546 309 545 309 544 310 543 310 541 312 540 312 539 311 543 307 544 307 547 304 548 304 549 303 550 303 552 301 553 301 554 300 555 300 556 299 557 299 558 298 559 298 560 297 561 297 562 296 563 296 564 295 565 295 566 294 567 294 568 293 569 293 570 292 571 292 572 291 573 291 574 290 " style="stroke:pink"/><path d="M436 290 437 289 438 289 439 290 438 291 437 291 " style="stroke:pink"/><path d="M438 289 439 288 440 288 441 289 440 290 439 290 " style="stroke:pink"/><path d="M404 289 405 288 408 288 409 289 408 290 405 290 " style="stroke:pink"/><path d="M440 288 441 287 442 287 443 288 442 289 441 289 " style="stroke:pink"/><path d="M402 288 403 287 404 288 403 289 " style="stroke:pink"/><path d="M442 287 443 286 444 286 445 287 444 288 443 288 " style="stroke:pink"/><path d="M400 287 401 286 402 287 401 288 " style="stroke:pink"/><path d="M399 286 400 285 401 286 400 287 " style="stroke:pink"/><path d="M432 284 433 283 438 283 439 284 438 285 435 285 434 286 433 286 432 287 431 287 428 290 427 290 423 294 422 294 416 300 415 300 405 310 403 308 403 307 400 304 399 304 397 302 399 300 400 300 406 294 407 294 412 289 413 289 414 288 413 288 412 289 409 289 408 288 409 287 411 287 412 286 415 286 416 285 419 285 420 284 " style="stroke:pink"/><path d="M577 280 578 279 583 279 584 280 588 280 589 281 592 281 593 282 594 282 595 283 596 283 597 284 596 285 587 285 588 286 588 287 587 288 585 288 584 287 578 287 577 286 574 286 573 285 575 283 577 283 578 284 583 284 582 283 581 283 579 281 578 281 " style="stroke:pink"/><path d="M588 278 589 277 590 278 589 279 " style="stroke:pink"/><path d="M584 277 585 276 586 276 587 277 586 278 585 278 " style="stroke:pink"/><path d="M579 276 580 275 582 275 583 276 582 277 580 277 " style="stroke:pink"/><path d="M574 275 575 274 578 274 579 275 578 276 575 276 " style="stroke:pink"/><path d="M568 274 569 273 573 273 574 274 573 275 569 275 " style="stroke:pink"/><path d="M562 273 563 272 568 272 569 273 568 274 563 274 " style="stroke:pink"/><path d="M444 273 445 272 446 272 448 274 449 274 451 276 452 276 454 278 455 278 458 281 459 281 461 283 462 283 464 285 465 285 468 288 469 288 486 305 486 306 491 311 491 312 490 313 483 306 483 305 477 299 476 299 467 290 466 290 464 288 463 288 460 285 459 285 457 283 456 283 453 280 452 280 449 277 448 277 " style="stroke:pink"/><path d="M441 270 442 269 445 272 444 273 443 273 441 271 " style="stroke:pink"/><path d="M442 269 443 268 448 268 449 269 448 270 443 270 " style="stroke:pink"/><path d="M458 268 459 267 525 267 526 268 538 268 539 269 548 269 549 270 556 270 557 271 562 271 563 272 562 273 556 273 555 272 547 272 546 271 536 271 535 270 518 270 517 269 459 269 " style="stroke:pink"/><path d="M378 267 379 266 380 267 379 268 " style="stroke:pink"/><path d="M596 245 597 244 598 245 597 246 " style="stroke:pink"/><path d="M305 242 306 241 307 242 306 243 " style="stroke:pink"/><path d="M306 230 307 229 308 230 307 231 " style="stroke:pink"/><path d="M620 224 621 223 622 224 621 225 " style="stroke:pink"/><path d="M631 201 632 200 633 201 632 202 " style="stroke:pink"/><path d="M646 195 647 194 648 194 649 195 648 196 647 196 " style="stroke:pink"/><path d="M258 181 259 180 260 181 259 182 " style="stroke:pink"/><path d="M589 63 590 62 591 62 592 63 591 64 590 64 " style="stroke:pink"/><path d="M578 61 579 60 580 61 579 62 " style="stroke:pink"/><path d="M587 58 588 57 589 58 588 59 " style="stroke:pink"/><path d="M584 58 585 57 586 58 585 59 " style="stroke:pink"/><path d="M588 57 589 56 590 57 589 58 " style="stroke:pink"/><path d="M589 56 590 55 591 56 590 57 " style="stroke:pink"/><path d="M490 8 491 7 493 9 493 10 495 12 495 13 497 15 497 16 498 17 498 18 499 19 499 20 500 21 500 22 501 21 501 20 502 19 502 18 505 15 506 15 507 16 507 26 508 27 508 28 509 29 509 30 511 32 512 32 513 33 517 33 519 35 520 35 525 40 525 41 531 47 531 48 532 49 533 49 534 48 535 48 536 47 538 47 539 46 542 46 543 45 555 45 556 46 563 46 564 45 565 45 567 43 567 42 568 41 569 42 569 44 570 44 571 45 567 49 566 49 564 51 563 51 562 52 561 52 560 53 559 53 558 54 556 54 554 56 553 56 561 56 562 57 564 57 566 59 565 60 562 60 561 61 559 61 558 62 557 62 573 62 574 61 578 61 579 62 581 60 582 60 584 58 585 59 586 58 587 58 588 59 582 65 581 65 580 66 581 66 582 65 583 65 584 64 586 64 587 63 589 63 590 64 589 65 588 65 587 66 586 66 584 68 583 68 582 69 584 69 585 70 584 71 582 71 581 72 579 72 578 73 576 73 575 74 573 74 573 75 574 75 575 76 579 76 581 74 582 74 583 75 582 76 582 77 583 77 587 81 589 81 590 82 595 82 596 83 595 84 591 84 592 84 593 85 596 85 597 86 600 86 601 87 603 87 604 88 609 88 610 89 609 90 607 90 606 91 604 91 603 92 601 92 600 93 599 93 596 96 594 96 594 97 595 98 595 99 597 101 597 102 599 104 599 105 600 106 600 107 601 108 601 109 602 110 602 111 603 112 603 113 608 118 608 119 610 121 611 121 615 125 616 125 618 127 619 127 620 128 619 129 612 129 611 128 611 129 610 130 609 129 606 129 607 130 608 130 626 148 626 149 630 153 630 154 632 156 632 157 634 159 634 160 633 161 629 157 628 157 615 144 614 144 610 140 609 140 607 138 606 138 605 137 604 137 603 136 602 136 601 135 600 135 601 136 602 136 606 140 607 140 613 146 614 146 625 157 625 158 627 160 627 161 628 162 628 163 630 165 630 166 632 168 632 169 634 171 634 172 635 173 635 174 636 175 636 177 635 178 633 176 633 177 632 178 630 176 630 175 628 173 627 173 626 172 618 172 624 178 625 178 627 180 628 180 629 181 630 181 631 182 632 182 633 183 636 183 637 184 637 186 647 186 648 187 647 188 646 188 645 189 643 189 642 190 641 190 642 190 644 192 645 192 647 194 646 195 645 195 644 194 642 194 641 193 638 193 637 192 635 192 634 191 623 191 622 192 621 192 622 193 624 193 625 194 629 194 631 196 630 197 629 197 628 198 628 201 627 202 626 202 624 204 623 204 622 205 625 205 626 204 627 204 628 203 629 203 631 201 632 202 632 204 627 209 629 211 629 212 628 213 622 213 621 214 619 214 618 215 617 215 617 216 606 227 607 226 608 226 609 225 610 225 611 224 612 224 613 225 608 230 609 229 610 229 611 228 612 228 613 227 614 227 615 226 616 226 617 225 618 225 619 224 620 224 621 225 614 232 613 232 610 235 609 235 607 237 606 237 605 238 604 238 603 239 602 239 601 240 600 240 599 241 598 241 597 242 596 242 595 243 594 243 593 244 592 244 591 245 590 245 589 246 587 246 586 247 585 247 584 248 582 248 581 249 580 249 579 250 577 250 576 251 575 251 576 251 577 250 579 250 580 249 582 249 583 248 587 248 588 247 590 247 591 246 593 246 594 245 595 245 596 246 594 248 592 248 596 248 597 249 596 250 594 250 593 251 592 251 591 252 590 252 589 253 587 253 585 255 584 255 586 255 587 256 586 257 585 257 583 259 582 259 580 261 579 261 577 263 576 263 574 265 573 265 576 265 577 266 581 266 582 267 585 267 586 268 589 268 590 269 589 270 582 270 581 269 579 269 581 269 582 270 584 270 585 271 586 271 587 272 589 272 590 273 591 273 592 274 591 275 588 275 587 274 583 274 582 273 578 273 577 272 573 272 572 271 567 271 566 270 562 270 561 269 556 269 555 268 550 268 549 267 543 267 542 266 537 266 536 265 529 265 528 264 520 264 518 262 519 261 519 260 520 259 520 258 521 257 521 256 522 255 522 254 523 253 523 252 524 251 524 250 525 249 525 248 526 247 526 245 527 244 527 243 528 242 528 240 529 239 529 238 530 237 530 235 531 234 531 231 532 230 535 230 536 231 539 231 540 230 542 230 543 229 544 229 548 225 548 224 551 221 551 220 553 218 553 217 555 215 555 214 556 213 556 212 558 210 558 209 559 208 559 207 560 206 560 205 561 204 561 202 562 201 562 199 563 198 563 192 564 191 564 187 563 186 563 179 562 178 562 175 561 174 561 173 560 172 560 171 557 168 556 168 555 167 552 167 550 169 550 170 548 172 548 173 547 174 547 175 546 176 546 177 545 178 545 179 544 180 544 181 543 182 543 184 542 185 542 187 541 188 541 191 540 192 540 196 539 197 539 211 538 212 537 211 537 209 536 208 536 206 535 205 535 196 535 198 534 199 534 202 533 203 533 207 532 208 532 213 531 214 531 225 530 226 530 228 528 230 527 229 527 225 527 226 526 227 526 229 525 230 525 231 524 232 524 233 522 235 521 234 521 246 522 247 522 250 521 251 520 251 519 250 519 249 518 248 518 246 517 245 517 242 516 241 516 230 514 232 513 232 512 233 511 233 510 234 505 234 504 233 505 232 506 232 512 226 512 225 513 224 513 222 514 221 514 216 513 217 512 216 512 215 511 214 511 211 510 210 510 209 507 206 507 211 508 212 508 214 509 215 508 216 507 216 499 208 499 207 498 206 498 204 497 203 497 196 496 195 496 188 495 189 495 190 493 192 493 193 492 194 492 195 491 196 491 208 492 209 492 212 491 213 488 210 488 209 487 208 487 207 486 206 486 204 485 203 485 200 484 199 484 192 485 191 485 188 486 187 486 185 487 184 487 183 488 182 488 181 489 180 489 179 490 178 490 176 491 175 491 165 490 164 490 166 489 167 489 176 488 177 487 176 487 175 486 174 486 172 486 175 485 176 485 177 482 180 481 180 480 179 480 178 481 177 481 173 480 172 480 170 479 169 479 168 476 165 475 165 473 163 472 163 471 162 470 162 464 156 464 155 464 156 465 157 465 158 466 159 466 160 468 162 469 162 470 163 470 164 473 167 473 168 475 170 475 172 476 173 476 174 477 175 477 178 476 179 475 179 470 174 469 174 466 171 465 171 464 170 464 172 463 173 460 173 459 172 457 172 456 171 454 171 453 170 452 170 451 169 450 169 449 168 448 168 447 167 446 167 443 164 442 164 439 161 439 160 436 157 436 156 435 155 435 154 434 153 434 151 434 153 433 154 433 160 432 161 432 179 433 180 432 181 431 181 430 180 429 180 423 174 423 173 421 171 421 170 419 168 419 167 418 166 418 165 417 164 417 163 416 162 416 160 416 161 415 162 415 163 414 164 414 165 413 166 413 167 412 168 412 169 411 170 411 171 410 172 410 174 409 175 409 177 408 178 408 185 409 186 409 189 410 190 410 192 411 193 411 194 412 195 412 197 413 198 413 199 415 201 415 202 414 203 402 191 402 190 400 188 400 187 398 185 398 183 397 182 397 181 396 180 396 177 395 176 395 171 395 173 394 174 394 176 393 177 393 182 394 183 394 187 395 188 395 191 396 192 396 193 397 194 397 195 398 196 398 197 399 198 399 199 404 204 405 204 406 205 407 205 408 206 409 206 410 207 408 209 404 209 403 208 398 208 397 207 395 207 394 206 393 206 392 205 391 205 390 204 389 204 388 203 387 203 386 202 385 202 383 200 382 200 380 198 379 198 378 197 377 197 376 196 375 196 374 195 372 195 371 194 367 194 361 200 361 201 360 202 360 203 359 204 359 205 358 206 358 208 357 209 357 211 358 212 358 213 359 214 359 215 360 216 360 217 361 218 361 219 362 220 362 222 363 223 363 224 364 225 364 226 365 227 365 229 366 230 366 231 367 232 367 234 368 235 368 236 369 237 369 239 370 240 370 242 371 243 371 245 372 246 372 248 373 249 373 251 374 252 374 254 375 255 375 256 376 257 376 259 377 260 377 262 378 263 378 264 379 265 379 266 378 267 376 265 376 269 375 270 373 268 373 266 372 265 372 264 371 263 371 261 370 262 370 263 369 264 369 267 368 268 368 271 367 272 367 276 366 277 366 288 367 289 367 290 366 291 364 289 364 287 363 286 363 280 362 279 360 281 360 282 358 284 357 283 357 280 358 279 358 265 357 264 357 263 355 263 351 267 351 268 350 269 350 270 348 272 348 274 347 275 346 274 346 266 347 265 347 263 349 261 349 260 351 258 349 258 348 257 346 257 346 258 345 259 345 262 344 263 343 262 343 261 342 262 342 263 340 265 339 264 339 260 340 259 340 257 341 256 341 255 343 253 343 251 342 250 339 250 338 249 333 249 332 248 329 248 328 247 329 246 332 246 331 245 330 245 329 244 328 244 327 243 326 243 325 242 323 242 322 241 320 241 319 240 314 240 313 241 311 241 310 242 307 242 306 241 309 238 309 237 310 236 308 234 308 233 307 232 307 231 308 230 309 230 311 232 312 232 313 233 322 233 323 232 322 232 321 231 320 231 319 230 317 230 316 229 315 229 314 228 312 228 311 227 309 227 308 226 305 226 304 225 301 225 300 224 298 224 297 223 295 223 294 222 293 222 292 221 291 221 290 220 289 220 287 218 286 218 279 211 280 210 282 210 283 211 304 211 303 210 300 210 299 209 297 209 296 208 294 208 293 207 292 207 291 206 289 206 288 205 287 205 286 204 285 204 284 203 283 203 282 202 281 202 279 200 278 200 276 198 275 198 273 196 272 196 259 183 259 182 260 181 261 181 263 183 264 183 265 184 266 184 267 185 268 185 269 186 271 186 272 187 274 187 275 188 277 188 278 187 277 186 276 186 275 185 274 185 273 184 272 184 271 183 270 183 269 182 268 182 267 181 266 181 265 180 264 180 263 179 262 179 261 178 260 178 259 177 257 177 256 176 255 176 254 175 247 175 246 174 245 174 239 168 239 167 238 166 239 165 240 165 241 166 242 166 239 163 239 162 238 161 238 160 237 159 238 158 240 158 242 160 243 160 244 161 245 161 246 162 248 162 249 163 251 163 252 162 253 162 254 161 255 161 255 160 254 159 254 157 253 156 253 155 252 154 252 152 253 151 253 149 254 148 254 146 255 145 255 144 254 143 254 141 252 139 251 139 250 138 245 138 244 137 244 136 245 135 244 135 243 136 239 136 238 137 230 137 229 136 230 135 232 135 233 134 236 134 237 133 238 133 239 132 239 130 240 129 241 129 242 130 243 130 244 131 245 131 246 130 248 130 250 128 251 128 252 127 251 127 250 128 248 128 247 129 242 129 241 128 239 128 238 127 238 126 239 125 242 125 243 124 245 124 246 123 248 123 249 122 251 122 252 121 254 121 255 120 256 120 257 119 258 119 259 118 260 118 261 117 262 117 263 116 264 116 266 114 267 114 270 111 270 110 265 110 264 111 256 111 255 112 254 112 253 111 256 108 257 108 258 107 259 107 258 107 257 108 256 108 255 109 254 109 253 110 252 110 251 111 249 111 248 112 246 112 245 113 244 113 243 114 240 114 239 115 235 115 234 114 235 113 236 113 237 112 238 112 239 111 240 111 241 110 243 110 244 109 245 109 246 108 247 108 248 107 249 107 250 106 251 106 252 105 253 105 254 104 255 104 256 103 257 103 258 102 259 102 260 101 261 101 262 100 263 100 264 99 265 99 267 97 268 97 269 96 270 96 271 95 272 95 273 94 265 94 264 93 262 93 261 92 260 92 258 90 259 89 266 89 267 88 272 88 273 87 276 87 277 86 280 86 281 85 283 85 284 84 286 84 287 83 288 83 289 82 291 82 292 81 293 81 294 80 296 80 297 79 296 79 295 78 293 78 292 77 288 77 287 76 288 75 289 75 290 74 292 74 293 73 296 73 297 72 299 72 300 71 302 71 303 70 305 70 306 69 308 69 309 68 310 68 311 67 313 67 314 66 315 66 317 64 318 64 324 58 323 57 319 57 318 56 316 56 315 55 314 55 313 54 312 54 306 48 307 47 308 47 309 48 310 48 311 49 312 49 313 50 314 50 315 51 317 51 318 52 322 52 323 51 327 51 328 50 332 50 333 49 338 49 334 45 333 45 332 44 331 44 329 42 330 41 332 41 333 42 347 42 348 43 352 43 351 42 350 42 348 40 348 39 346 37 346 33 347 32 351 36 352 36 353 37 354 37 355 38 357 38 358 39 366 39 367 38 378 38 379 37 380 37 378 37 377 36 376 36 375 35 373 35 372 34 371 34 370 33 369 33 368 32 367 32 366 31 365 31 364 30 363 30 362 29 361 29 360 28 361 27 368 27 369 28 389 28 390 27 397 27 398 28 401 28 400 28 396 24 395 24 393 22 393 21 390 18 390 17 389 16 389 14 388 13 388 12 389 11 390 11 401 22 402 22 403 23 405 23 406 24 412 24 413 23 418 23 419 22 424 22 425 21 432 21 433 20 441 20 442 21 446 21 447 22 449 22 450 23 452 23 453 24 455 24 456 25 459 25 460 26 461 26 460 25 460 24 459 23 459 22 458 21 458 17 457 16 457 15 458 14 458 12 461 9 463 11 463 13 464 14 464 15 465 16 465 17 466 18 466 19 468 21 468 22 474 28 475 28 478 31 479 31 481 33 482 33 483 32 483 31 484 30 484 29 485 28 485 26 486 25 486 23 487 22 487 21 488 20 488 17 489 16 489 13 490 12 " style="stroke:pink"/><path d="M396 169 " style="stroke:pink"/></svg>